<?xml version="1.0" encoding="UTF-8" standalone="no"?>
<svg
   xmlns:dc="http://purl.org/dc/elements/1.1/"
   xmlns:cc="http://creativecommons.org/ns#"
   xmlns:rdf="http://www.w3.org/1999/02/22-rdf-syntax-ns#"
   xmlns:svg="http://www.w3.org/2000/svg"
   xmlns="http://www.w3.org/2000/svg"
   viewBox="0 0 435.25333 283.38666"
   height="283.38666"
   width="435.25333"
   xml:space="preserve"
   id="svg2"
   version="1.1"><metadata
     id="metadata8"><rdf:RDF><cc:Work
         rdf:about=""><dc:format>image/svg+xml</dc:format><dc:type
           rdf:resource="http://purl.org/dc/dcmitype/StillImage" /></cc:Work></rdf:RDF></metadata><defs
     id="defs6" /><g
     transform="matrix(1.3333333,0,0,-1.3333333,0,283.38667)"
     id="g10"><g
       transform="scale(0.1)"
       id="g12"><path
         id="path14"
         style="fill:#32509d;fill-opacity:1;fill-rule:nonzero;stroke:none"
         d="M 621.953,1274.13 316.328,625.129 0,1274.13 H 189.852 L 316.328,985.398 431.816,1274.13 h 190.137" /><path
         id="path16"
         style="fill:#32509d;fill-opacity:1;fill-rule:nonzero;stroke:none"
         d="m 663.75,643.16 h 176.898 v 630.965 H 663.75 Z" /><path
         id="path18"
         style="fill:#32509d;fill-opacity:1;fill-rule:nonzero;stroke:none"
         d="M 1503.71,1235.18 1287.73,976.102 1551.66,643.16 H 1352.23 L 1131.96,924.559 V 643.16 H 955.066 v 630.97 h 176.894 v -250.42 l 198.87,250.42 h 152.82 l 20.06,-38.95" /><path
         id="path20"
         style="fill:#32509d;fill-opacity:1;fill-rule:nonzero;stroke:none"
         d="m 1770.9,1274.13 h 91.99 V 643.16 h -176.9 v 460.41 l 84.91,170.56" /><path
         id="path22"
         style="fill:#32509d;fill-opacity:1;fill-rule:nonzero;stroke:none"
         d="m 2390.18,1274.13 h 176.89 V 625.129 L 2151.03,940.328 V 643.16 h -176.89 v 648.99 l 416.04,-314.638 v 296.618" /><path
         id="path24"
         style="fill:#32509d;fill-opacity:1;fill-rule:nonzero;stroke:none"
         d="m 2946.67,851.891 v 132.097 h 317.73 c -1.96,-204.207 -131.26,-349.847 -316.6,-349.847 -183.94,0 -332.95,145.347 -332.95,324.5 0,179.149 149.01,324.499 332.95,324.499 97.46,0 193.23,-50.43 267.03,-130.7 l -116.34,-99.15 c -50.14,56.05 -89.85,73.23 -150.69,73.23 -85.91,0 -155.49,-75.21 -155.49,-167.879 0,-92.672 69.58,-167.879 155.49,-167.879 47.88,0 88.73,18.019 112.67,61.129 h -113.8" /><path
         id="path26"
         style="fill:#32509d;fill-opacity:1;fill-rule:nonzero;stroke:none"
         d="m 1626.4,1099.72 534.11,1025.68 -534.11,-214.44 164.14,-86.34 -164.14,-724.9" /><path
         id="path28"
         style="fill:#32509d;fill-opacity:1;fill-rule:nonzero;stroke:none"
         d="m 1626.4,1099.72 -537.58,1025.68 537.28,-214.44 -164.15,-86.34 164.45,-724.9" /><path
         id="path30"
         style="fill:#5690cc;fill-opacity:1;fill-rule:nonzero;stroke:none"
         d="m 1626.41,1099.72 164.75,724.9 -164.75,86.34 -164.15,-86.34 164.15,-724.9" /><path
         id="path32"
         style="fill:#5690cc;fill-opacity:1;fill-rule:nonzero;stroke:none"
         d="m 800.688,132.172 c 0,22.59 -8.52,41.519 -25.571,56.769 -17.047,15.25 -47.281,28.079 -90.691,38.481 -52.508,12.527 -93.485,30.976 -122.918,55.367 -29.438,24.371 -44.149,55.031 -44.149,91.941 0,38.731 15.856,71.079 47.563,97.059 31.703,25.981 72.793,38.973 123.254,38.973 54.324,0 97.566,-14.903 129.734,-44.672 32.156,-29.789 47.676,-64.328 46.539,-103.649 l -0.683,-2.05 h -64.098 c 0,29.097 -9.605,52.621 -28.813,70.578 -19.21,17.953 -46.769,26.929 -82.679,26.929 -33.414,0 -59.043,-7.546 -76.887,-22.668 -17.848,-15.121 -26.762,-34.839 -26.762,-59.152 0,-21.598 9.657,-39.609 28.981,-54.039 19.312,-14.449 50.68,-27.109 94.097,-38.019 52.282,-12.961 92.063,-32.051 119.336,-57.29 27.278,-25.218 40.914,-56.48 40.914,-93.761 0,-40.0081 -16.363,-72.1604 -49.093,-96.4885 C 786.031,12.1484 743.293,0 690.563,0 641.008,0 597.191,13.4688 559.121,40.3984 521.051,67.3398 502.578,103.309 503.715,148.309 l 0.683,2.062 H 568.5 c 0,-31.832 11.703,-56.0429 35.117,-72.6327 23.41,-16.5899 52.391,-24.8867 86.946,-24.8867 33.867,0 60.687,7.1172 80.46,21.3476 19.778,14.2305 29.665,33.5628 29.665,57.9728" /><path
         id="path34"
         style="fill:#5690cc;fill-opacity:1;fill-rule:nonzero;stroke:none"
         d="m 1351.47,166.391 0.68,-2.051 c 0.91,-46.602 -15.46,-85.6291 -49.1,-117.1212 C 1269.41,15.7383 1224.98,0 1169.74,0 1113.59,0 1067.85,19.8906 1032.5,59.6602 997.156,99.4414 979.488,149.91 979.488,211.051 v 88.308 c 0,61.141 17.668,111.661 53.012,151.551 35.35,39.899 81.09,59.852 137.24,59.852 56.14,0 100.81,-14.953 134,-44.852 33.18,-29.89 49.32,-69.5 48.41,-118.82 l -0.68,-2.051 h -64.44 c 0,34.789 -10.23,62.289 -30.69,82.52 -20.46,20.23 -49.32,30.339 -86.6,30.339 -37.51,0 -67.4,-15.097 -89.67,-45.308 -22.28,-30.199 -33.41,-67.668 -33.41,-112.418 v -88.91 c 0,-45.203 11.13,-82.903 33.41,-113.1018 22.27,-30.211 52.16,-45.3086 89.67,-45.3086 37.28,0 66.14,10.0468 86.6,30.1679 20.46,20.1215 30.69,47.9025 30.69,83.3715 h 64.44" /><path
         id="path36"
         style="fill:#5690cc;fill-opacity:1;fill-rule:nonzero;stroke:none"
         d="m 1559.59,191.27 h 167.06 l -81.83,226.058 h -2.03 z m 187.18,-56.258 H 1538.79 L 1491.74,7.16016 h -68.53 L 1615.17,503.59 h 57.62 L 1861.67,7.16016 h -68.53 L 1746.77,135.012" /><path
         id="path38"
         style="fill:#5690cc;fill-opacity:1;fill-rule:nonzero;stroke:none"
         d="M 2031.96,450.75 V 60 h 85.23 c 45.91,0 82.11,15.1016 108.6,45.32 26.47,30.2 39.72,68.918 39.72,116.16 v 68.481 c 0,46.769 -13.25,85.269 -39.72,115.469 -26.49,30.211 -62.69,45.32 -108.6,45.32 z M 1964.78,7.16016 V 503.59 h 152.41 c 65.01,0 117.17,-19.942 156.5,-59.84 39.32,-39.891 58.99,-91.43 58.99,-154.609 v -67.86 c 0,-63.41 -19.67,-114.961 -58.99,-154.6326 C 2234.36,26.9883 2182.2,7.16016 2117.19,7.16016 h -152.41" /><path
         id="path40"
         style="fill:#5690cc;fill-opacity:1;fill-rule:nonzero;stroke:none"
         d="m 2534.31,191.27 h 167.07 l -81.83,226.058 h -2.05 z M 2721.5,135.012 H 2513.51 L 2466.46,7.16016 h -68.54 L 2589.89,503.59 h 57.61 L 2836.39,7.16016 h -68.52 L 2721.5,135.012" /></g></g></svg>